<?xml version="1.0" encoding="UTF-8"?>
<svg width="582px" height="178px" viewBox="0 0 582 178" version="1.1" xmlns="http://www.w3.org/2000/svg" xmlns:xlink="http://www.w3.org/1999/xlink">
    <!-- Generator: Sketch 55.2 (78181) - https://sketchapp.com -->
    <title>Logo</title>
    <desc>Created with Sketch.</desc>
    <g id="Artboard" stroke="none" stroke-width="1" fill="none" fill-rule="evenodd">
        <g id="supply_logo_layers" fill-rule="nonzero">
            <g id="Layer_2" transform="translate(0.000000, 34.000000)" fill="#000000">
                <path d="M0.5,98.66 L8.83,73.67 C14.26,76.32 20.79,78.66 28.43,80.68 C36.07,82.7 43.23,83.71 49.92,83.71 C59.01,83.71 63.55,81.25 63.55,76.33 C63.55,73.93 62.16,72.16 59.38,71.03 C56.6,69.89 52.06,68.76 45.75,67.62 C40.32,66.74 36.16,65.98 33.25,65.35 C30.35,64.72 26.72,63.61 22.36,62.04 C18.01,60.46 14.69,58.63 12.42,56.55 C10.15,54.47 8.13,51.6 6.36,47.94 C4.59,44.28 3.71,39.99 3.71,35.07 C3.71,24.21 7.78,15.73 15.92,9.61 C24.06,3.49 35.39,0.43 49.9,0.43 C63.15,0.43 76.66,3.14 90.42,8.57 L80.95,31.67 C71.23,27.25 61.01,25.04 50.28,25.04 C40.81,25.04 36.08,27.44 36.08,32.23 C36.08,33.49 36.49,34.57 37.31,35.45 C38.13,36.33 39.58,37.12 41.66,37.82 C43.74,38.51 45.57,39.02 47.15,39.33 C48.73,39.65 51.16,40.12 54.44,40.75 C60.75,41.89 66.02,43.09 70.25,44.35 C74.48,45.61 78.67,47.38 82.84,49.65 C87.01,51.92 90.13,54.95 92.21,58.74 C94.29,62.53 95.33,67.01 95.33,72.18 C95.33,83.79 91.13,92.88 82.74,99.44 C74.35,106 62.83,109.29 48.19,109.29 C30.67,109.27 14.77,105.73 0.5,98.66 Z" id="Path"></path>
            </g>
            <g id="Layer_3" transform="translate(101.000000, 34.000000)" fill="#000000">
                <path d="M79.17,0.39 C79.17,22.03 79.17,56.34 79.17,56.39 C79.17,70.85 67.45,82.57 52.99,82.57 C38.53,82.57 26.81,70.85 26.81,56.39 C26.81,56.34 26.81,22.03 26.81,0.39 L0.11,0.39 C0.11,20.67 0.11,56.24 0.11,56.39 C0.11,85.6 23.79,109.27 52.99,109.27 C82.2,109.27 105.87,85.59 105.87,56.39 C105.87,56.26 105.87,20.66 105.87,0.39 L79.17,0.39 Z" id="Path"></path>
            </g>
            <g id="Layer_4" transform="translate(214.000000, 34.000000)" fill="#000000">
                <path d="M53.05,3.5 C43.51,3.5 34.59,6.06 26.87,10.48 L26.87,0.39 L0.17,0.39 L0.17,143.29 L26.87,143.29 L26.87,102.29 C34.6,106.71 43.52,109.27 53.05,109.27 C82.26,109.27 105.93,85.59 105.93,56.39 C105.93,27.18 82.26,3.5 53.05,3.5 Z M53.05,82.57 C38.59,82.57 26.87,70.85 26.87,56.39 C26.87,41.93 38.59,30.21 53.05,30.21 C67.51,30.21 79.23,41.93 79.23,56.39 C79.23,70.85 67.51,82.57 53.05,82.57 Z" id="Shape"></path>
            </g>
            <g id="Layer_5" transform="translate(327.000000, 34.000000)" fill="#000000">
                <path d="M53.11,3.5 C43.57,3.5 34.65,6.06 26.93,10.48 L26.93,0.39 L0.23,0.39 L0.23,143.29 L26.93,143.29 L26.93,102.29 C34.66,106.71 43.58,109.27 53.11,109.27 C82.32,109.27 105.990003,85.59 105.990003,56.39 C106,27.18 82.32,3.5 53.11,3.5 Z M53.11,82.57 C38.65,82.57 26.93,70.85 26.93,56.39 C26.93,41.93 38.65,30.21 53.11,30.21 C67.57,30.21 79.29,41.93 79.29,56.39 C79.29,70.85 67.57,82.57 53.11,82.57 Z" id="Shape"></path>
            </g>
            <g id="Layer_6" transform="translate(440.000000, 0.000000)" fill="#000000">
                <polygon id="Path" points="27 143.27 0.3 143.27 0.3 0.36 27 0.36"></polygon>
            </g>
            <g id="Layer_7" transform="translate(474.000000, 34.000000)" fill="#000000">
                <polygon id="Path" points="107.58 0.32 53.93 143.29 25.53 143.29 39.85 104.63 0.29 0.32 28.84 0.32 54.15 66.91 78.88 0.32"></polygon>
            </g>
            <g id="Layer_8" transform="translate(1.000000, 148.000000)" fill="#FFDE17">
                <polygon id="Path" points="205.87 0.82 205.87 29.29 0.51 29.29 0.51 0.82"></polygon>
            </g>
        </g>
    </g>
</svg>
